<svg width="109" height="208" viewBox="0 0 109 208" fill="none" xmlns="http://www.w3.org/2000/svg">
<path d="M81.1879 0.000224451C85.3084 0.000224451 89.1006 0.799302 92.5655 2.39814C102.85 7.59676 108.923 17.4769 109 28.4941V104.384C107.071 116.448 93.3202 113.168 92.9872 104.384V32.726C91.7618 28.6396 83.9045 30.3339 83.7166 32.726V197.201C81.7187 213.996 60.108 209.066 59.5569 196.919V96.2026C58.1751 89.7064 49.0808 92.6582 48.8815 96.4848C49.2672 129.962 49.1625 163.441 49.1625 196.919C47.0073 213.628 25.5017 209.353 25.0026 197.201L24.7219 32.726C23.4623 28.7277 16.1816 30.2613 16.0128 32.726V104.384C14.0835 116.448 0.333015 113.168 0 104.384V28.4941C0.194407 17.9467 4.04371 7.38023 13.2036 2.39814C16.2003 0.799302 19.8523 0 24.1598 0L81.1879 0.000224451Z" fill="white"/>
</svg>
